<?xml version="1.0" standalone="no"?>
<!DOCTYPE svg PUBLIC "-//W3C//DTD SVG 20010904//EN"
 "http://www.w3.org/TR/2001/REC-SVG-20010904/DTD/svg10.dtd">
<svg version="1.0" xmlns="http://www.w3.org/2000/svg"
 width="608.000000pt" height="608.000000pt" viewBox="0 0 608.000000 608.000000"
 preserveAspectRatio="xMidYMid meet">

<g transform="translate(0.000000,608.000000) scale(0.100000,-0.100000)"
fill="#000000" stroke="none">
<path d="M3456 5222 c-3 -6 -21 -11 -38 -11 -18 -1 -49 -3 -68 -4 -19 -2 -41
1 -47 6 -9 6 -15 4 -19 -7 -3 -9 -10 -13 -15 -10 -18 11 -58 14 -64 5 -3 -6
-11 -8 -18 -5 -7 2 -22 -4 -34 -15 -12 -12 -23 -16 -25 -10 -3 10 -47 20 -90
20 -10 0 -18 4 -18 9 0 5 -13 8 -30 6 -16 -2 -30 1 -30 7 0 16 -220 1 -255
-17 -17 -9 -45 -19 -62 -22 -18 -3 -33 -10 -33 -15 0 -5 -18 -9 -40 -9 -22 0
-40 -4 -40 -10 0 -5 -13 -10 -30 -10 -17 0 -33 -7 -39 -17 -6 -10 -11 -12 -11
-5 0 16 -20 16 -20 -1 0 -7 -10 -13 -21 -14 -39 -3 -97 -51 -136 -112 -21 -34
-43 -59 -49 -57 -6 3 -16 -6 -23 -20 -6 -13 -15 -24 -21 -24 -5 0 -10 -7 -10
-16 0 -8 -4 -13 -9 -10 -16 11 -40 -5 -34 -21 4 -10 2 -14 -4 -10 -6 4 -32
-16 -57 -43 -26 -28 -51 -50 -57 -50 -6 0 -7 -4 -4 -10 3 -5 2 -10 -2 -10 -5
0 -22 -21 -38 -47 -17 -25 -42 -59 -56 -75 -15 -15 -25 -28 -22 -28 3 0 -1 -8
-8 -17 -12 -15 -12 -16 1 -8 8 4 24 15 35 24 16 13 -26 -41 -46 -59 -8 -7 -19
-48 -25 -90 -3 -19 -9 -40 -15 -46 -6 -7 -11 -23 -13 -36 -2 -22 -31 -127 -43
-158 -4 -8 -8 -28 -10 -44 -3 -17 -11 -44 -19 -60 -11 -26 -13 -27 -8 -6 3 16
2 21 -4 12 -5 -7 -8 -43 -7 -80 1 -37 -2 -78 -7 -92 -6 -14 -10 -44 -9 -67 1
-28 -3 -43 -11 -43 -9 0 -9 -3 0 -12 7 -7 12 -37 13 -68 0 -40 3 -50 9 -35 7
16 9 12 9 -19 1 -38 0 -39 -15 -20 -14 17 -15 17 -10 1 3 -10 9 -44 13 -74 4
-42 3 -54 -6 -49 -8 6 -10 -11 -6 -65 4 -46 2 -75 -5 -79 -6 -3 12 -17 40 -30
59 -28 65 -43 13 -35 -21 3 -31 2 -23 -2 22 -10 39 -35 40 -60 0 -27 -19 -41
-31 -22 -6 9 -9 10 -9 2 0 -7 8 -17 18 -22 9 -6 12 -11 5 -11 -8 0 -10 -12 -6
-37 5 -29 3 -35 -8 -28 -12 8 -12 6 0 -8 8 -10 11 -27 7 -43 -5 -17 -3 -24 4
-19 16 10 41 -27 29 -41 -6 -8 -4 -14 6 -18 20 -7 19 -32 -1 -40 -8 -3 -13
-10 -10 -15 4 -5 0 -11 -6 -14 -10 -3 -10 -7 0 -20 8 -9 11 -21 7 -26 -3 -7 0
-8 9 -5 9 3 16 11 16 18 0 6 5 4 10 -4 8 -12 10 -10 11 10 1 14 7 -7 14 -47 8
-40 12 -91 11 -114 -2 -24 0 -35 5 -28 6 11 9 10 14 -4 4 -9 0 -23 -9 -32 -9
-9 -16 -23 -16 -31 0 -8 -11 -19 -25 -26 -13 -6 -22 -15 -19 -19 3 -5 -5 -9
-18 -8 -13 0 -18 3 -11 5 8 4 5 12 -8 25 -27 27 -32 20 -18 -20 11 -30 14 -32
45 -26 43 8 44 -1 2 -14 l-33 -9 35 -2 c43 -3 41 -3 63 5 13 6 16 3 11 -9 -4
-11 -1 -16 11 -16 13 0 16 -6 12 -21 -3 -12 -3 -18 1 -14 12 12 30 -59 20 -79
-7 -13 -7 -16 1 -12 6 4 11 1 11 -8 0 -8 -6 -17 -12 -19 -8 -3 -5 -6 5 -6 13
-1 17 -6 12 -20 -3 -11 -1 -22 5 -26 5 -3 10 -1 10 5 0 17 35 7 36 -10 2 -27
26 -80 34 -75 4 3 10 -4 13 -15 3 -11 0 -23 -5 -27 -6 -3 -8 -1 -4 5 3 6 2 13
-3 16 -5 4 -8 -2 -7 -11 2 -10 8 -18 15 -18 19 0 40 -45 41 -86 0 -20 7 -42
15 -49 8 -7 15 -24 15 -38 0 -13 7 -30 15 -36 8 -6 17 -26 19 -44 2 -18 13
-42 25 -53 11 -11 21 -25 21 -32 0 -7 -3 -8 -8 -2 -4 6 -15 16 -24 24 -16 12
-18 11 -18 -3 0 -9 6 -16 13 -16 6 0 21 -7 32 -16 16 -12 17 -18 8 -33 -22
-36 -34 -98 -23 -125 10 -27 -1 -61 -25 -78 -5 -4 -6 -8 -2 -8 4 0 3 -10 -4
-21 -9 -17 -13 -19 -20 -8 -7 12 -9 11 -10 -1 -1 -8 -2 -20 -3 -27 0 -6 -19
-27 -41 -47 -36 -32 -38 -35 -17 -36 20 0 21 -3 12 -20 -6 -11 -15 -18 -21
-15 -5 4 -9 -1 -9 -10 0 -8 -11 -20 -25 -25 -15 -6 -27 -21 -33 -42 -7 -26
-13 -32 -30 -30 -15 2 -22 -2 -22 -12 0 -9 -6 -15 -12 -13 -8 1 -14 -12 -16
-35 -2 -21 -8 -38 -13 -38 -6 0 -7 9 -4 20 6 19 4 18 -19 -3 -14 -14 -26 -30
-26 -36 0 -8 -8 -10 -21 -6 -24 8 -84 -18 -93 -40 -3 -8 -16 -15 -28 -15 -28
0 -71 -28 -63 -40 3 -5 1 -11 -4 -14 -4 -3 -8 4 -7 16 0 12 -6 23 -14 25 -13
4 -13 3 0 -7 12 -9 10 -11 -13 -7 -15 2 -25 2 -22 -1 2 -3 0 -12 -7 -19 -9
-11 -9 -17 3 -25 12 -8 12 -9 -1 -5 -8 2 -29 -4 -47 -15 -17 -10 -35 -18 -40
-17 -25 4 -51 -4 -76 -24 -16 -12 -42 -32 -58 -45 -16 -13 -33 -21 -39 -17 -6
4 -7 -1 -3 -11 4 -12 3 -15 -5 -10 -7 4 -12 3 -12 -1 0 -5 -11 -20 -24 -34
-13 -14 -26 -34 -30 -45 -6 -18 -108 -74 -136 -74 -16 0 -168 -54 -227 -81
-24 -10 -80 -30 -125 -43 -85 -25 -145 -43 -258 -79 -71 -22 -167 -65 -175
-77 -6 -9 60 7 87 21 11 6 19 5 24 -2 5 -8 10 -6 16 5 5 9 13 16 18 16 16 0
11 -23 -11 -49 -15 -18 -23 -21 -31 -13 -18 18 -28 14 -28 -12 0 -19 -10 -28
-50 -45 -59 -26 -92 -55 -84 -75 6 -15 -29 -32 -59 -27 -28 4 -23 -53 8 -73
13 -9 30 -16 37 -16 8 0 21 -9 31 -20 9 -11 21 -20 26 -20 5 0 -4 14 -21 31
-25 25 -29 33 -17 40 12 8 12 10 -1 19 -8 5 -11 10 -6 10 5 0 3 7 -4 15 -10
13 -9 15 8 15 12 0 24 -4 27 -10 3 -5 1 -10 -4 -10 -6 0 -11 -5 -11 -11 0 -7
14 -8 41 -4 39 7 40 6 30 -14 -10 -17 -9 -21 4 -21 8 0 15 9 15 20 0 11 7 20
15 20 8 0 15 7 15 15 0 8 5 15 10 15 6 0 10 -4 10 -9 0 -10 12 -9 48 3 17 6
27 3 36 -10 10 -13 15 -14 21 -4 5 8 1 18 -10 26 -10 8 -15 17 -12 21 4 4 13
1 19 -5 7 -7 17 -12 23 -12 12 0 42 68 37 83 -1 5 2 6 8 2 5 -3 10 -15 10 -26
0 -25 17 -25 25 1 3 11 10 20 15 20 5 0 7 7 4 15 -4 10 0 15 14 15 15 0 22 8
25 28 l4 27 2 -27 c1 -31 15 -37 25 -12 3 8 10 13 16 9 11 -7 -8 -55 -22 -55
-4 0 -8 -5 -8 -11 0 -6 12 -9 28 -7 16 2 26 8 24 16 -1 8 2 11 8 7 5 -3 10 -1
10 5 0 6 5 8 10 5 15 -9 12 -25 -5 -25 -8 0 -15 -4 -15 -10 0 -9 20 -14 46
-11 19 2 23 -25 8 -54 -8 -15 -11 -31 -8 -36 8 -14 34 -10 34 5 0 8 10 18 22
22 l22 7 -22 17 c-26 22 -29 35 -5 26 10 -4 14 -4 10 0 -4 4 1 13 11 21 15 13
14 14 -13 8 -47 -10 -17 10 43 29 32 10 59 13 68 8 18 -10 74 -3 74 9 0 5 -11
9 -25 9 -14 0 -25 6 -25 13 0 9 11 12 34 9 30 -3 34 -1 30 14 -3 13 3 23 21
31 22 10 27 8 40 -9 10 -15 11 -26 4 -39 -15 -28 11 -36 33 -9 12 14 18 39 18
70 0 35 4 50 16 54 23 9 25 6 27 -63 1 -33 5 -61 9 -61 4 0 8 -10 8 -22 0 -19
2 -20 10 -8 8 12 12 12 18 3 4 -7 22 -14 40 -16 32 -4 57 -17 32 -17 -7 0 -1
-9 14 -21 14 -11 26 -27 26 -35 0 -8 4 -14 9 -14 5 0 13 -10 17 -22 3 -13 19
-41 35 -62 16 -22 29 -46 29 -53 0 -7 3 -12 8 -12 20 3 30 -3 40 -25 6 -14 23
-27 41 -31 16 -3 41 -17 56 -31 14 -13 30 -24 34 -24 5 0 11 -9 14 -20 3 -11
11 -20 17 -20 7 0 10 8 7 20 -3 11 -1 23 4 26 5 3 9 -2 9 -10 0 -14 12 -21 24
-13 3 1 15 -8 28 -20 22 -21 30 -21 311 -23 158 0 287 2 287 5 0 4 -5 16 -11
27 -10 19 -9 20 10 15 14 -3 21 0 21 9 0 16 16 19 25 4 3 -5 10 -10 16 -10 10
0 8 28 -5 49 -7 10 -2 12 22 6 18 -3 33 -2 37 4 3 7 -2 11 -14 11 -33 0 -34
19 -2 38 37 20 39 35 9 56 -16 12 -25 13 -35 4 -7 -6 -17 -8 -20 -4 -4 4 -1
11 6 15 11 7 11 9 0 13 -9 3 -10 10 -4 24 14 31 14 56 1 45 -7 -6 -17 -6 -26
-1 -12 8 -11 10 5 11 11 1 30 1 43 0 18 -1 22 2 19 21 -2 13 -2 17 0 11 7 -21
20 -15 33 17 7 16 17 30 23 30 7 0 7 -4 -1 -12 -15 -15 -16 -48 -2 -48 6 0 10
9 10 20 0 25 17 26 25 1 3 -10 15 -21 27 -25 28 -7 37 2 17 17 -9 7 -19 22
-23 35 -5 15 -13 21 -24 18 -25 -8 -41 6 -48 42 -5 27 -4 32 12 32 14 0 19 7
19 25 0 14 -3 25 -7 25 -5 0 -8 6 -8 14 0 10 -7 12 -22 8 -13 -3 -19 -1 -15 5
4 6 0 24 -8 39 -12 24 -15 26 -16 9 0 -18 -1 -17 -10 3 -5 13 -7 28 -4 32 3 5
1 12 -5 15 -6 4 -8 16 -5 26 4 11 1 27 -6 35 -11 13 -9 14 12 9 24 -6 25 -5
20 32 -3 25 -6 31 -9 16 -2 -14 -8 -20 -17 -16 -11 4 -12 10 -4 25 9 17 8 19
-8 16 -11 -2 -17 -11 -16 -25 2 -20 1 -20 -45 -4 -59 20 -58 19 -44 33 8 8 18
6 38 -7 21 -14 28 -15 35 -4 4 8 4 16 -2 20 -5 3 -7 14 -3 24 5 13 4 16 -5 11
-7 -5 -10 -17 -8 -28 4 -12 1 -18 -6 -15 -15 4 -22 77 -8 77 5 0 11 -4 13 -10
2 -6 9 -6 17 0 11 6 6 11 -20 17 -42 11 -51 44 -17 61 13 6 17 11 11 11 -16 1
-15 59 2 126 11 44 13 46 15 20 2 -16 3 -36 3 -42 -1 -7 3 -13 8 -13 5 0 17
-18 26 -40 14 -31 23 -40 41 -40 18 0 23 4 18 16 -3 9 -6 20 -6 25 0 6 -4 7
-10 4 -5 -3 -10 0 -10 8 0 11 11 13 52 9 43 -4 50 -2 45 10 -3 9 -1 20 4 25 6
6 -2 8 -23 5 l-33 -5 20 22 c15 17 16 24 6 30 -9 6 -7 10 8 14 11 3 25 0 30
-7 10 -11 11 -16 11 -41 0 -8 6 -12 15 -9 10 4 13 0 10 -14 -3 -15 2 -19 20
-18 15 1 21 6 17 16 -2 8 3 5 12 -8 10 -13 15 -30 11 -42 -6 -18 -2 -20 43
-20 43 0 51 -3 56 -22 3 -13 19 -38 37 -57 24 -27 33 -31 39 -20 5 7 12 10 16
6 4 -4 2 -13 -4 -19 -18 -18 -14 -31 8 -25 11 3 20 2 20 -1 0 -4 11 -12 25
-19 20 -9 25 -8 25 3 0 8 7 14 15 14 8 0 15 7 15 15 0 8 4 15 9 15 5 0 8 7 7
16 0 9 6 20 14 24 8 4 24 11 35 17 24 12 45 6 45 -13 0 -8 6 -14 13 -14 6 0
23 -3 37 -5 22 -5 23 -4 5 5 -16 8 -11 9 23 5 23 -3 42 -1 42 4 0 15 43 21 59
8 12 -10 14 -9 8 6 -4 11 -1 17 9 17 8 0 13 -4 10 -9 -3 -5 1 -11 9 -15 10 -3
15 1 15 11 0 14 2 14 20 -2 11 -10 23 -15 26 -12 4 4 -1 9 -10 13 -16 6 -23
34 -8 34 5 0 16 -8 25 -18 12 -13 26 -17 47 -14 16 2 28 8 25 12 -3 5 -14 6
-26 3 -19 -5 -38 9 -39 30 0 11 28 9 35 -3 4 -6 -1 -7 -12 -4 -15 5 -15 4 -3
-4 10 -8 18 -8 27 -1 7 6 16 8 21 5 12 -7 36 20 28 32 -3 6 0 10 7 9 33 -1 47
4 47 19 0 12 6 15 21 11 15 -4 19 -2 15 9 -6 16 29 20 38 5 3 -5 15 -7 26 -4
11 3 17 9 14 14 -3 5 4 9 15 9 13 0 23 11 31 35 6 19 14 34 18 34 20 -3 25 2
12 11 -13 9 -12 11 5 16 21 6 65 86 65 116 0 9 4 19 9 22 4 3 6 17 3 31 -4 25
14 59 28 50 12 -7 17 26 9 60 -4 17 -7 24 -8 17 0 -7 -5 -10 -11 -7 -5 3 -10
-1 -10 -9 0 -22 -20 -20 -20 2 -1 13 -4 11 -15 -8 -8 -14 -14 -19 -15 -11 0 8
-3 11 -7 8 -3 -4 -13 -1 -21 6 -13 10 -14 8 -8 -11 7 -21 5 -23 -16 -20 -12 2
-22 8 -21 14 1 5 -7 10 -18 10 -10 0 -19 -3 -19 -7 0 -4 -15 -6 -32 -3 -18 2
-27 1 -20 -2 6 -3 12 -13 12 -22 0 -13 -4 -11 -16 6 -8 12 -20 19 -26 16 -8
-5 -9 -1 -4 12 4 10 4 15 0 11 -4 -4 -18 3 -31 15 -19 18 -23 19 -23 5 0 -22
-16 -22 -29 1 -10 16 -10 16 -11 -2 0 -12 -5 -16 -16 -12 -9 3 -18 6 -20 6 -3
0 -2 4 1 10 3 6 -1 7 -10 4 -10 -4 -23 3 -36 20 -22 28 -45 35 -35 11 3 -9 0
-15 -8 -15 -19 0 -49 -37 -41 -50 6 -9 2 -9 -14 -1 -11 7 -21 21 -21 31 0 11
-7 20 -15 20 -23 0 -34 30 -23 62 7 19 15 27 25 24 11 -5 13 -1 7 17 -10 32
-10 42 0 44 5 1 13 7 17 15 6 10 9 8 9 -7 0 -11 5 -27 11 -35 8 -11 9 -7 5 18
-6 32 9 45 20 17 11 -27 20 -16 16 20 -4 32 -2 35 22 35 15 0 26 6 26 14 0 7
3 27 6 43 5 25 3 29 -22 31 -15 1 -32 6 -38 11 -6 4 -26 9 -45 9 -18 0 -35 3
-37 5 -2 2 7 17 21 33 26 30 28 46 7 50 -7 1 -8 0 -2 -3 16 -8 12 -21 -7 -19
-10 2 -18 14 -20 31 -3 22 -1 26 11 22 11 -5 16 0 18 16 2 41 3 46 9 52 3 3
12 -1 19 -10 14 -17 35 -21 25 -5 -3 5 -1 10 4 10 7 0 10 16 8 39 -3 35 0 41
21 46 48 12 222 7 239 -7 9 -7 35 -14 57 -14 23 -1 56 -4 74 -6 27 -3 32 -1
32 16 0 17 2 18 10 6 7 -11 10 -5 10 23 0 20 5 37 11 37 6 0 9 12 7 28 -1 15
2 26 8 25 22 -4 7 45 -23 81 -18 20 -33 34 -33 31 0 -3 -38 14 -85 39 -66 35
-94 44 -127 43 -32 -2 -43 2 -43 13 0 9 -11 16 -27 18 -17 2 -28 9 -28 19 0
10 -6 13 -16 9 -11 -4 -15 -2 -11 8 4 10 1 13 -9 9 -8 -3 -14 -1 -12 3 6 19
-50 67 -70 62 -15 -4 -19 -2 -15 9 5 13 2 13 -15 4 -12 -7 -22 -9 -22 -5 0 3
-8 -2 -17 -13 -10 -10 -13 -12 -8 -4 8 12 7 12 -11 3 -14 -7 -24 -8 -31 -1 -7
7 -15 5 -26 -5 -14 -15 -16 -14 -20 2 -4 16 -5 16 -6 0 -1 -17 -2 -17 -19 0
-26 25 -16 55 35 112 l45 50 -27 10 c-14 5 -43 10 -63 10 -27 0 -45 8 -69 30
-18 17 -38 30 -45 30 -9 0 -9 3 2 11 12 8 9 10 -12 6 -16 -2 -28 -1 -28 4 0 5
-10 13 -22 20 -18 9 -20 9 -15 -4 6 -15 -21 -47 -40 -47 -17 0 -48 -41 -48
-63 0 -26 -18 -32 -38 -12 -9 8 -20 15 -25 15 -13 0 -13 70 0 107 6 17 19 34
29 36 9 3 23 17 30 32 8 16 35 40 60 54 101 57 139 84 139 97 0 8 7 17 15 20
8 4 15 15 15 25 0 28 -31 71 -46 65 -17 -7 -18 13 -2 107 8 50 17 76 31 86 10
7 17 21 14 31 -3 14 0 16 17 12 18 -5 19 -3 9 10 -11 12 -9 17 12 26 14 6 25
16 25 22 0 14 -37 12 -43 -2 -4 -10 -6 -10 -6 -1 -1 6 3 14 7 17 5 3 6 25 2
50 -4 25 -6 67 -6 95 1 28 -2 51 -6 51 -4 0 -5 7 -1 16 5 13 2 15 -14 10 -20
-6 -39 15 -34 38 1 4 -10 19 -24 32 -14 13 -21 24 -15 24 7 0 3 15 -9 36 -18
29 -19 39 -9 51 10 12 9 18 -7 29 -10 8 -25 14 -33 14 -7 0 -11 4 -8 8 11 18
-16 82 -45 107 -25 21 -34 23 -46 13 -12 -9 -16 -9 -24 3 -7 11 -9 11 -9 0 0
-10 -3 -11 -13 -2 -10 8 -16 8 -25 -1 -8 -8 -29 -7 -79 2 l-68 13 50 19 50 18
-65 -6 c-36 -3 -69 -9 -75 -14 -6 -5 -17 -5 -25 0 -12 8 -10 10 9 10 16 0 21
4 17 15 -3 8 -1 15 3 15 5 0 17 3 27 7 12 4 15 3 10 -5 -5 -8 -2 -10 8 -6 23
9 20 34 -4 34 -13 0 -18 5 -14 15 4 9 0 15 -9 15 -10 0 -13 8 -9 25 6 31 22
33 22 3 1 -22 1 -23 13 -3 6 11 12 23 12 26 0 3 12 17 27 30 22 21 25 28 15
39 -10 10 -7 11 13 7 23 -6 27 -2 42 39 15 42 15 44 -1 39 -12 -3 -22 3 -32
21 -13 26 -14 43 -3 92 5 26 29 29 38 6 4 -9 9 -14 13 -11 3 4 1 13 -6 21 -16
20 6 65 36 72 24 6 30 19 13 29 -19 12 0 26 20 15 34 -18 50 -12 50 20 0 44
27 39 37 -7 4 -21 6 -41 5 -45 -1 -5 5 -8 13 -8 8 0 24 -9 35 -20 11 -11 20
-16 20 -11 0 5 -7 17 -16 25 -14 15 -13 17 7 25 l23 8 -22 12 c-30 16 -28 27
8 40 35 12 60 34 60 53 0 15 53 17 83 4 10 -5 21 -5 25 -1 4 4 1 10 -5 12 -7
3 -13 9 -13 14 0 4 7 6 15 2 9 -3 15 -2 14 3 -4 21 3 23 26 8 23 -15 30 -13
26 9 0 4 10 7 24 7 14 0 25 4 25 10 0 6 17 7 43 4 40 -6 72 -7 135 -2 57 3
137 -6 147 -18 6 -6 39 -19 75 -27 87 -22 170 -66 190 -102 16 -30 40 -45 40
-26 0 6 -4 11 -10 11 -5 0 -10 5 -10 11 0 18 28 -9 36 -34 7 -26 33 -57 46
-57 5 0 -2 15 -16 33 -35 45 -33 54 5 23 17 -14 37 -26 45 -26 16 0 112 -90
98 -90 -5 -1 4 -8 19 -16 16 -9 31 -13 34 -10 7 7 170 -164 194 -202 19 -32
29 -77 35 -157 3 -33 13 -75 22 -93 13 -25 14 -35 5 -40 -9 -6 -9 -22 -2 -67
6 -33 15 -114 20 -180 5 -66 16 -160 24 -210 20 -122 34 -253 40 -353 2 -45 7
-87 10 -92 3 -6 1 -10 -4 -10 -6 0 -11 -5 -11 -11 0 -8 5 -7 15 1 9 7 14 19
11 26 -7 18 5 26 21 13 7 -6 13 -22 13 -35 0 -13 5 -24 10 -24 6 0 10 4 10 9
0 5 7 11 14 14 10 4 13 1 10 -7 -3 -8 -1 -17 4 -20 5 -3 10 23 11 59 1 35 6
79 12 97 12 45 12 45 -15 19 l-24 -23 8 38 c5 20 12 40 17 43 28 20 37 92 37
290 1 132 5 206 11 208 14 4 8 267 -6 271 -5 2 -9 8 -9 13 0 6 5 7 11 3 12 -7
8 20 -7 60 -4 9 -1 16 6 16 9 0 7 7 -4 25 -9 13 -16 29 -16 35 0 10 -44 111
-81 183 -10 22 -19 43 -19 49 0 15 -62 108 -72 108 -5 0 -7 4 -4 9 3 5 -3 20
-14 34 -11 14 -20 28 -20 32 0 15 -105 145 -117 145 -7 0 -13 6 -13 13 0 8 -9
22 -20 32 -11 10 -20 23 -20 30 0 6 -12 17 -26 24 -21 9 -24 14 -14 25 9 12 8
14 -7 10 -12 -3 -25 5 -38 25 -17 27 -56 48 -78 42 -5 -1 -6 3 -3 7 3 5 -3 17
-14 27 -11 10 -20 15 -20 10 0 -4 -7 -2 -15 5 -8 7 -12 17 -8 24 3 6 3 8 -1 4
-8 -6 -45 21 -75 55 -8 9 -21 17 -28 17 -6 0 -18 9 -26 20 -7 11 -34 34 -58
52 -24 17 -46 35 -47 40 -7 16 -63 39 -115 48 -29 4 -64 11 -78 15 -15 4 -30
2 -33 -3z m-1071 -173 c-10 -15 -25 -10 -19 6 4 8 10 12 15 9 5 -3 7 -10 4
-15z m-48 -24 c0 -8 -4 -15 -9 -15 -10 0 -11 14 -1 23 9 10 10 9 10 -8z m572
-355 c6 8 13 11 17 8 3 -4 -1 -15 -11 -24 -14 -15 -18 -15 -26 -3 -5 8 -9 19
-9 24 0 6 5 3 10 -5 9 -13 11 -13 19 0z m-999 -154 c0 -3 -4 -8 -10 -11 -5 -3
-10 -1 -10 4 0 6 5 11 10 11 6 0 10 -2 10 -4z m-24 -63 c-10 -10 -19 5 -10 18
6 11 8 11 12 0 2 -7 1 -15 -2 -18z m697 20 c-7 -2 -19 -2 -25 0 -7 3 -2 5 12
5 14 0 19 -2 13 -5z m7 -52 c0 -6 -4 -13 -10 -16 -5 -3 -10 1 -10 9 0 9 5 16
10 16 6 0 10 -4 10 -9z m-74 -60 c-8 -12 -46 -21 -46 -11 0 5 8 11 18 13 29 8
33 7 28 -2z m94 -21 c-6 -11 -13 -20 -15 -20 -3 0 -5 9 -5 20 0 11 7 20 15 20
13 0 14 -4 5 -20z m-133 -26 c-3 -3 -12 -4 -19 -1 -8 3 -5 6 6 6 11 1 17 -2
13 -5z m3 -54 c0 -5 -2 -10 -4 -10 -3 0 -8 5 -11 10 -3 6 -1 10 4 10 6 0 11
-4 11 -10z m-30 -230 c0 -5 -7 -10 -16 -10 -8 0 -12 5 -9 10 3 6 10 10 16 10
5 0 9 -4 9 -10z m-367 -424 c4 -10 1 -13 -8 -9 -8 3 -12 9 -9 14 7 12 11 11
17 -5z m-346 -33 c-3 -10 -5 -4 -5 12 0 17 2 24 5 18 2 -7 2 -21 0 -30z m803
-83 c0 -5 -5 -10 -11 -10 -5 0 -7 5 -4 10 3 6 8 10 11 10 2 0 4 -4 4 -10z
m-300 -275 c12 -15 55 -12 74 6 6 5 16 3 25 -5 9 -8 25 -16 36 -19 15 -4 13
-5 -7 -6 -21 -1 -28 -6 -28 -21 0 -23 1 -24 35 -8 14 6 25 17 25 25 0 7 5 13
10 13 12 0 13 -23 3 -34 -10 -10 -11 -76 -1 -76 4 0 8 -16 8 -35 0 -24 5 -35
15 -35 8 0 15 5 15 11 0 8 5 8 15 -1 12 -10 15 -10 15 3 0 8 7 18 16 21 25 9
-1 35 -29 29 -13 -3 -8 3 13 14 19 10 37 15 38 11 6 -14 30 -9 36 7 3 8 11 13
18 11 42 -13 69 -16 63 -6 -6 9 1 12 23 9 4 -1 6 -5 5 -10 -2 -4 7 -13 18 -20
16 -8 19 -16 13 -37 -4 -15 -6 -35 -6 -44 0 -12 -7 -18 -20 -18 -12 0 -18 -3
-14 -7 4 -5 13 -8 19 -8 5 0 12 -6 15 -12 2 -7 -1 -13 -7 -13 -6 0 -10 -17 -9
-40 1 -23 -4 -46 -10 -52 -7 -7 -12 -18 -12 -26 0 -17 -24 -42 -42 -43 -10 0
-10 -2 0 -6 6 -2 12 -13 12 -24 0 -11 6 -28 12 -39 11 -17 9 -22 -10 -35 -12
-9 -22 -25 -22 -36 0 -10 -4 -19 -10 -19 -13 0 -13 -61 1 -97 7 -20 12 -24 18
-14 7 11 13 11 31 -2 21 -14 21 -16 3 -24 -10 -6 -44 -16 -75 -23 -32 -7 -58
-17 -58 -22 0 -4 -8 -8 -17 -8 -15 0 -15 -2 -4 -9 12 -7 7 -13 -22 -27 -20
-10 -37 -21 -37 -26 0 -4 -6 -8 -12 -8 -7 0 -23 -15 -34 -33 -81 -121 -85
-136 -58 -189 11 -22 13 -33 5 -41 -6 -6 -11 -19 -11 -28 0 -12 -6 -16 -20
-12 -11 3 -20 11 -20 17 0 7 -9 22 -20 34 -12 12 -18 22 -14 22 3 0 1 7 -7 16
-10 13 -10 17 0 24 10 6 9 10 -5 19 -14 8 -16 13 -7 19 9 5 4 16 -18 36 -17
16 -28 35 -25 42 3 8 1 14 -4 14 -4 0 -12 14 -15 31 -5 23 -9 28 -16 18 -6 -9
-9 -10 -9 -2 0 6 -7 19 -16 27 -14 15 -14 16 5 16 12 0 21 5 21 10 0 6 -6 10
-14 10 -11 0 -13 7 -7 28 9 31 8 68 -2 78 -4 4 -10 -7 -13 -25 -9 -41 -24 -50
-24 -14 0 16 -6 35 -12 42 -9 8 -9 11 -1 9 6 -2 12 -1 13 2 3 8 -23 64 -33 71
-5 3 2 9 15 13 18 5 20 8 9 15 -7 5 -10 14 -7 20 4 6 0 21 -8 33 l-16 22 0
-24 c0 -16 -3 -21 -10 -14 -6 6 -13 42 -15 80 -3 41 -10 73 -18 79 -21 16 -48
93 -36 101 8 5 8 9 0 14 -7 3 -15 24 -18 45 -6 36 -5 38 16 32 22 -5 22 -5 5
14 -15 16 -16 22 -5 29 9 5 11 17 8 32 -6 22 -4 24 23 20 20 -3 30 0 30 9 0 7
3 9 7 6 3 -4 12 -2 19 3 6 6 22 13 34 15 25 5 53 25 45 33 -7 8 36 28 66 30
15 1 32 -5 39 -13z m-473 -97 c-3 -8 -6 -5 -6 6 -1 11 2 17 5 13 3 -3 4 -12 1
-19z m2703 -68 c0 -5 -2 -10 -4 -10 -3 0 -8 5 -11 10 -3 6 -1 10 4 10 6 0 11
-4 11 -10z m-1750 -10 c0 -5 -2 -10 -4 -10 -3 0 -8 5 -11 10 -3 6 -1 10 4 10
6 0 11 -4 11 -10z m-114 -478 c-12 -11 -16 6 -9 39 l8 34 3 -33 c2 -19 1 -36
-2 -40z m-631 -181 c3 -6 -4 -15 -15 -21 -17 -9 -20 -8 -20 10 0 20 24 28 35
11z m1196 -72 c7 -11 9 -11 9 0 0 11 3 11 15 1 10 -8 15 -9 15 -2 0 6 6 9 13
6 8 -3 14 -21 15 -42 1 -27 -1 -33 -8 -22 -6 10 -10 11 -10 3 0 -7 -7 -13 -15
-13 -8 0 -15 -7 -15 -16 0 -11 -5 -14 -16 -10 -9 3 -36 6 -60 6 -39 0 -46 3
-54 26 -6 14 -14 23 -19 20 -15 -10 -61 12 -61 29 0 15 22 19 80 16 14 -1 37
2 50 7 32 12 49 9 61 -9z m287 -11 c-3 -11 29 -31 65 -42 9 -3 20 -19 23 -36
6 -28 8 -29 20 -13 9 12 13 14 14 5 0 -7 5 -10 10 -7 6 3 10 2 10 -4 0 -5 -5
-13 -10 -16 -6 -4 -8 -10 -6 -14 3 -4 -1 -8 -9 -8 -8 0 -15 5 -15 10 0 5 -7 4
-15 -3 -10 -8 -15 -9 -15 -2 0 6 -7 9 -15 6 -10 -4 -15 0 -15 12 0 16 -2 17
-10 4 -15 -23 -12 -40 6 -33 12 4 15 1 13 -12 -5 -24 -53 -36 -101 -26 -21 5
-38 6 -38 3 0 -3 -5 -1 -12 6 -7 7 -22 12 -35 12 -13 0 -23 5 -23 10 0 6 -19
9 -42 8 -43 -3 -43 -3 -46 35 -2 27 1 37 11 37 8 0 20 7 27 15 14 17 50 20 50
5 0 -5 -5 -10 -11 -10 -5 0 -7 -5 -3 -12 5 -8 10 -5 17 9 5 12 17 24 26 27 9
4 27 13 40 20 28 17 51 11 52 -13 0 -9 5 -4 11 12 9 26 31 39 26 15z m-1114
-103 c-6 -15 -8 -15 -16 -2 -4 8 -5 23 -2 32 6 15 8 15 16 2 4 -8 5 -23 2 -32z
m802 -15 c8 0 14 -9 14 -20 0 -27 -30 -26 -59 1 l-23 21 24 12 c18 9 24 9 26
-1 2 -7 10 -13 18 -13z m44 0 c0 -5 -4 -10 -10 -10 -5 0 -10 5 -10 10 0 6 5
10 10 10 6 0 10 -4 10 -10z m-848 -125 c-6 -34 -12 -32 -12 6 0 16 4 28 9 25
4 -3 6 -17 3 -31z m872 8 c-5 -5 -12 -12 -16 -18 -4 -6 -8 -2 -8 8 0 9 7 17
17 17 9 0 12 -3 7 -7z m-667 -81 c14 -12 29 -20 34 -17 5 4 9 -3 9 -14 0 -12
-6 -21 -14 -21 -8 0 -18 -5 -22 -11 -4 -7 4 -10 22 -7 26 3 29 0 32 -29 2 -24
9 -33 25 -35 15 -2 21 -9 19 -21 -3 -15 1 -17 19 -12 16 5 20 3 17 -6 -3 -8
-12 -13 -20 -11 -8 1 -23 -9 -33 -22 -10 -13 -25 -22 -32 -19 -9 4 -13 0 -11
-10 2 -9 -1 -15 -7 -14 -5 1 -9 8 -9 15 1 6 -2 12 -7 12 -5 0 -9 -4 -9 -10 0
-5 -5 -10 -11 -10 -8 0 -8 4 0 14 9 10 4 20 -21 44 -17 18 -32 42 -33 54 -1
19 -7 22 -29 20 -29 -4 -29 -6 -11 56 4 15 2 24 -9 28 -9 3 -12 12 -9 22 6 13
8 13 14 -4 6 -16 8 -14 8 9 1 16 5 26 10 23 5 -4 7 3 4 14 -3 11 -9 17 -14 14
-5 -3 -6 1 -3 9 5 14 28 -1 91 -61z m-185 26 c-9 -9 -12 -7 -12 12 0 19 3 21
12 12 9 -9 9 -15 0 -24z m506 5 c-2 -9 -8 -18 -15 -20 -9 -3 -11 11 -4 35 1 1
6 2 12 2 6 0 9 -8 7 -17z m150 -30 c21 18 72 11 72 -10 0 -8 4 -12 9 -8 6 3
15 -3 20 -14 15 -27 14 -34 -4 -27 -8 3 -15 0 -15 -6 0 -7 -6 -6 -16 3 -13 10
-17 10 -24 -1 -5 -8 -12 -12 -15 -8 -4 3 -18 0 -32 -7 -36 -19 -61 -4 -65 38
-2 26 2 34 22 43 20 9 26 8 28 -3 3 -12 6 -12 20 0z m-578 -77 c0 -3 -4 -8
-10 -11 -5 -3 -10 -1 -10 4 0 6 5 11 10 11 6 0 10 -2 10 -4z m470 -6 c0 -5 -4
-10 -9 -10 -6 0 -13 5 -16 10 -3 6 1 10 9 10 9 0 16 -4 16 -10z m-712 -123
c-2 -27 -28 -33 -28 -6 0 14 7 21 27 28 2 1 2 -9 1 -22z m532 3 c0 -5 -2 -10
-4 -10 -2 0 -12 -3 -22 -7 -16 -6 -17 -5 -4 10 17 19 30 22 30 7z m-90 -72 c0
6 4 12 9 12 5 0 8 -11 7 -25 -1 -29 -1 -28 -27 -15 -12 7 -19 21 -19 38 l1 27
14 -25 c8 -14 14 -19 15 -12z m87 10 c-3 -8 -6 -5 -6 6 -1 11 2 17 5 13 3 -3
4 -12 1 -19z m-32 2 c3 -5 1 -10 -4 -10 -6 0 -11 5 -11 10 0 6 2 10 4 10 3 0
8 -4 11 -10z m75 -10 c0 -5 -4 -10 -10 -10 -5 0 -10 5 -10 10 0 6 5 10 10 10
6 0 10 -4 10 -10z m10 -76 c0 -8 -4 -12 -10 -9 -5 3 -10 10 -10 16 0 5 5 9 10
9 6 0 10 -7 10 -16z m720 -545 c0 -14 -17 -10 -23 5 -4 10 -1 13 9 9 7 -3 14
-9 14 -14z m-1925 1 c-3 -5 -11 -10 -16 -10 -6 0 -7 5 -4 10 3 6 11 10 16 10
6 0 7 -4 4 -10z m272 -202 c-3 -8 -6 -5 -6 6 -1 11 2 17 5 13 3 -3 4 -12 1
-19z m13 -33 c10 -12 10 -15 -4 -15 -9 0 -16 7 -16 15 0 8 2 15 4 15 2 0 9 -7
16 -15z m-136 -4 c7 -11 -14 -20 -32 -13 -11 4 -11 6 0 13 17 11 26 11 32 0z
m32 -30 c-5 -37 -4 -38 21 -33 18 3 24 1 19 -7 -4 -6 -13 -11 -21 -11 -9 0
-16 -19 -20 -56 -6 -47 -5 -57 11 -70 14 -11 15 -17 7 -20 -25 -11 -14 -34 16
-34 33 0 44 -10 32 -29 -6 -9 -11 -10 -15 -2 -12 18 -36 12 -47 -11 -9 -22 -9
-21 -6 5 3 21 0 28 -17 32 -65 14 -63 13 -38 14 20 1 21 3 10 24 -7 12 -16 24
-19 27 -10 8 -8 60 2 66 5 3 13 -5 18 -18 9 -22 9 -22 17 -3 4 11 12 23 18 27
6 4 5 12 -4 23 -13 15 -15 15 -26 1 -7 -10 -18 -14 -28 -10 -28 11 -17 74 13
74 14 0 14 -2 1 -10 -12 -7 -12 -12 -3 -21 10 -10 17 -3 33 34 12 26 23 47 26
47 3 0 3 -17 0 -39z m34 -12 c0 -5 -4 -9 -10 -9 -5 0 -10 7 -10 16 0 8 5 12
10 9 6 -3 10 -10 10 -16z m50 11 c0 -5 -4 -10 -10 -10 -5 0 -10 5 -10 10 0 6
5 10 10 10 6 0 10 -4 10 -10z m-185 -30 c3 -5 1 -10 -4 -10 -6 0 -11 5 -11 10
0 6 2 10 4 10 3 0 8 -4 11 -10z m222 -36 c-3 -3 -12 -4 -19 -1 -8 3 -5 6 6 6
11 1 17 -2 13 -5z m423 -23 c0 -20 -13 -41 -25 -41 -7 0 -12 11 -12 25 0 18 5
25 18 25 11 0 19 -4 19 -9z m-655 -26 c29 -30 31 -35 11 -35 -8 0 -23 11 -34
25 -13 17 -22 21 -25 13 -2 -7 -8 -9 -13 -5 -8 7 12 26 28 27 4 0 19 -11 33
-25z m255 -33 c10 -29 13 -52 7 -52 -5 0 -7 -13 -5 -30 3 -20 0 -30 -9 -30
-12 0 -17 24 -14 63 1 10 -4 17 -14 17 -12 0 -14 6 -9 26 5 19 4 25 -5 20 -6
-4 -11 -1 -11 8 0 9 7 16 16 16 9 0 12 5 8 11 -4 7 -1 10 6 7 7 -2 21 -27 30
-56z m45 9 c-6 -21 -25 -29 -25 -11 0 6 5 10 10 10 6 0 10 8 10 17 0 9 3 14 6
10 3 -3 3 -15 -1 -26z m292 -3 c-3 -8 -6 -5 -6 6 -1 11 2 17 5 13 3 -3 4 -12
1 -19z m100 -98 c-3 -11 -1 -23 4 -26 5 -3 9 0 9 5 0 6 5 11 12 11 6 0 8 -3 5
-7 -4 -3 -2 -12 5 -20 13 -16 8 -22 -20 -28 -16 -3 -19 0 -15 12 4 11 2 14 -5
9 -7 -4 -12 -16 -12 -26 0 -13 -5 -17 -15 -14 -8 4 -23 3 -32 -2 -10 -4 -28
-8 -41 -9 -19 -1 -22 3 -19 32 5 44 12 49 38 24 13 -12 29 -21 36 -21 18 0 16
27 -2 34 -8 3 -15 13 -15 23 1 16 2 16 16 -2 13 -17 16 -18 24 -5 5 8 10 18
10 23 0 4 5 7 11 7 6 0 9 -9 6 -20z m-1487 -80 c0 -9 -50 -23 -57 -17 -2 3 -1
16 2 30 7 25 8 26 31 10 13 -8 24 -19 24 -23z m1535 -10 c3 -5 1 -10 -4 -10
-6 0 -11 5 -11 10 0 6 2 10 4 10 3 0 8 -4 11 -10z m-1570 -48 c1 -15 -3 -21
-11 -18 -7 3 -16 0 -20 -5 -4 -7 -10 -7 -16 -1 -13 13 12 53 31 50 8 -2 15
-13 16 -26z m1481 3 c10 -25 -4 -34 -38 -24 -17 5 -36 14 -42 20 -8 9 -5 9 11
0 31 -16 56 -14 49 4 -3 8 -1 15 5 15 5 0 12 -7 15 -15z m71 -11 c-3 -3 -12
-4 -19 -1 -8 3 -5 6 6 6 11 1 17 -2 13 -5z m-1837 -43 c0 -5 -7 -12 -16 -15
-24 -9 -28 -7 -14 9 14 17 30 20 30 6z m1785 -31 c3 -5 1 -10 -4 -10 -6 0 -11
5 -11 10 0 6 2 10 4 10 3 0 8 -4 11 -10z m12 -66 c6 -13 7 -24 2 -24 -5 0 -9
-9 -9 -19 0 -21 -17 -37 -28 -27 -3 4 -1 16 6 26 17 27 15 60 -3 60 -8 0 -15
4 -15 9 0 18 35 -1 47 -25z m-2142 -34 c-3 -5 -12 -10 -18 -10 -7 0 -6 4 3 10
19 12 23 12 15 0z"/>
<path d="M2630 3070 c0 -5 5 -10 10 -10 6 0 10 5 10 10 0 6 -4 10 -10 10 -5 0
-10 -4 -10 -10z"/>
<path d="M2001 3054 c0 -11 3 -14 6 -6 3 7 2 16 -1 19 -3 4 -6 -2 -5 -13z"/>
<path d="M2580 3061 c0 -5 5 -13 10 -16 6 -3 10 -2 10 4 0 5 -4 13 -10 16 -5
3 -10 2 -10 -4z"/>
<path d="M2237 2400 c3 -11 7 -20 9 -20 2 0 4 9 4 20 0 11 -4 20 -9 20 -5 0
-7 -9 -4 -20z"/>
<path d="M3460 2200 c-12 -7 -12 -12 -3 -21 10 -10 14 -9 19 5 8 22 2 27 -16
16z"/>
<path d="M2557 1814 c-3 -3 -3 -14 0 -25 6 -20 37 -26 48 -9 3 6 2 10 -4 10
-5 0 -16 7 -24 15 -8 8 -17 12 -20 9z"/>
<path d="M2240 505 c0 -8 5 -15 10 -15 6 0 10 7 10 15 0 8 -4 15 -10 15 -5 0
-10 -7 -10 -15z"/>
<path d="M2791 4614 c0 -11 3 -14 6 -6 3 7 2 16 -1 19 -3 4 -6 -2 -5 -13z"/>
<path d="M2670 4300 c0 -5 5 -10 10 -10 6 0 10 5 10 10 0 6 -4 10 -10 10 -5 0
-10 -4 -10 -10z"/>
<path d="M2690 4270 c-6 -11 -15 -19 -21 -17 -6 1 -15 -8 -20 -21 -7 -19 -6
-21 8 -14 9 5 24 7 34 5 38 -10 69 47 33 61 -22 8 -22 8 -34 -14z"/>
<path d="M2568 4193 c7 -3 16 -2 19 1 4 3 -2 6 -13 5 -11 0 -14 -3 -6 -6z"/>
<path d="M2625 4161 c-10 -17 12 -21 25 -6 10 12 10 15 -3 15 -9 0 -18 -4 -22
-9z"/>
<path d="M3430 3970 c-8 -5 -18 -6 -22 -4 -4 3 -8 -2 -8 -10 0 -10 -7 -13 -24
-10 -19 3 -25 0 -24 -13 0 -10 -2 -33 -6 -51 -4 -20 -3 -31 3 -28 5 3 11 -1
15 -9 3 -8 1 -17 -4 -20 -6 -4 -10 -14 -10 -23 1 -15 2 -15 11 1 6 9 14 15 20
12 5 -4 9 4 9 16 0 17 3 19 13 10 8 -6 17 -8 20 -4 4 3 7 -9 7 -29 0 -40 8
-52 25 -38 9 7 16 6 25 -5 7 -8 19 -15 26 -15 8 0 14 -2 14 -5 0 -9 -35 -40
-60 -53 -14 -7 -44 -30 -67 -50 -34 -30 -45 -47 -52 -85 -5 -26 -5 -47 0 -47
12 0 11 -57 -1 -81 -6 -10 -17 -19 -25 -19 -25 0 -17 -20 23 -53 20 -18 56
-51 79 -75 23 -24 48 -45 56 -46 8 -1 26 -10 42 -20 23 -15 29 -16 36 -5 5 8
9 20 9 27 0 9 16 12 60 10 33 -2 60 0 60 3 0 4 19 5 43 2 23 -3 39 -2 35 2 -4
5 -2 15 5 23 9 13 9 14 0 8 -7 -4 -13 -2 -13 3 0 10 28 15 68 14 6 -1 12 6 12
14 0 8 4 11 10 8 5 -3 7 0 4 8 -3 8 -19 17 -36 21 l-30 6 26 31 c14 17 26 35
26 40 0 14 22 11 64 -10 l38 -20 -26 -26 c-14 -14 -31 -23 -36 -20 -6 3 -10 1
-10 -4 0 -15 12 -14 50 5 26 13 37 14 51 5 11 -6 19 -7 19 -1 0 5 6 7 14 4 18
-7 28 9 20 31 -11 28 -129 110 -188 130 -33 11 -56 25 -56 33 0 8 -8 20 -17
27 -15 11 -13 13 13 15 16 1 47 2 69 2 37 0 38 0 12 8 -15 5 -57 12 -93 15
-49 6 -64 11 -60 21 3 7 1 16 -4 19 -5 3 -2 17 5 32 13 25 12 29 -5 45 -11 11
-20 20 -20 23 0 2 24 11 53 21 45 15 122 22 290 25 9 0 15 4 12 10 -4 5 -1 9
5 9 6 0 8 5 5 10 -3 6 -1 10 4 10 6 0 16 -9 23 -20 7 -11 20 -20 28 -20 12 1
11 3 -3 11 -11 7 -16 17 -12 29 3 10 0 22 -6 26 -9 5 -10 2 -6 -9 9 -23 -6
-21 -34 4 l-24 20 25 -11 25 -11 -24 18 c-27 20 -61 27 -61 14 0 -5 6 -12 13
-15 6 -3 3 -5 -8 -3 -12 1 -20 10 -20 21 0 11 -6 21 -14 24 -9 3 -11 0 -6 -9
5 -7 -9 -3 -31 10 -39 24 -107 34 -204 30 -106 -4 -178 -1 -198 10 -15 8 -21
8 -25 -2 -3 -9 -7 -9 -18 0 -9 7 -20 8 -29 3z m23 -15 c4 -8 3 -16 -1 -19 -4
-3 -9 4 -9 15 -2 23 3 25 10 4z m-8 -56 c-5 -16 -4 -19 5 -14 9 5 11 4 6 -3
-4 -7 -11 -12 -17 -12 -10 0 -12 33 -2 43 12 12 14 7 8 -14z m422 -85 c-3 -3
-12 -4 -19 -1 -8 3 -5 6 6 6 11 1 17 -2 13 -5z"/>
<path d="M1766 2975 c4 -8 10 -12 15 -9 14 8 10 24 -6 24 -9 0 -12 -6 -9 -15z"/>
<path d="M4469 2938 c-11 -10 -13 -24 -8 -53 3 -22 7 -31 8 -20 3 28 8 47 16
68 8 20 4 22 -16 5z"/>
<path d="M4353 2848 c-16 -33 -33 -102 -33 -129 0 -19 6 -25 25 -27 27 -2 30
2 39 58 4 22 3 30 -3 21 -13 -21 -24 23 -16 65 7 39 3 43 -12 12z"/>
<path d="M1786 2842 c-2 -4 -1 -14 5 -22 7 -12 9 -10 9 8 0 23 -5 28 -14 14z"/>
<path d="M3225 2717 c-29 -25 -27 -47 8 -62 12 -6 30 -27 39 -47 10 -20 27
-42 39 -49 20 -10 21 -9 16 13 -5 19 0 31 23 53 37 35 38 67 4 94 -36 29 -95
28 -129 -2z"/>
<path d="M4250 2380 c0 -5 5 -10 10 -10 6 0 10 5 10 10 0 6 -4 10 -10 10 -5 0
-10 -4 -10 -10z"/>
<path d="M4246 2338 c-3 -13 -7 -39 -10 -58 -3 -19 -10 -54 -15 -78 -7 -36 -6
-41 6 -30 8 6 13 22 10 35 -2 13 -1 23 4 23 9 0 19 47 23 99 2 36 -11 42 -18
9z"/>
<path d="M3754 2195 c1 -8 8 -21 16 -28 10 -10 12 -9 6 6 -3 10 -6 23 -6 28 0
5 -4 9 -9 9 -5 0 -8 -7 -7 -15z"/>
<path d="M4052 1828 c-23 -30 -32 -50 -29 -67 3 -13 1 -36 -3 -50 -14 -43 -18
-119 -6 -131 7 -7 7 -13 -1 -21 -6 -6 -8 -19 -6 -30 4 -14 13 -18 39 -16 38 2
44 20 19 53 -22 29 -18 44 13 55 16 5 39 24 51 40 28 38 23 76 -20 144 -24 37
-28 50 -17 56 7 5 8 9 3 9 -6 0 -25 -19 -43 -42z m38 -120 c0 -4 -7 -8 -16 -8
-11 0 -13 -6 -9 -19 8 -27 -12 -36 -25 -11 -9 16 -8 25 2 38 11 13 11 15 -2 7
-12 -6 -12 -5 -3 5 6 7 9 19 6 28 -4 9 4 6 20 -9 15 -12 27 -26 27 -31z"/>
<path d="M4055 1483 c5 -37 -22 -62 -43 -41 -7 7 -14 9 -17 6 -3 -3 -11 -58
-19 -124 -12 -101 -12 -125 1 -166 23 -81 99 -159 242 -253 69 -45 138 -95
153 -111 37 -40 68 -111 68 -161 0 -35 -30 -115 -51 -133 -3 -3 -18 -23 -35
-45 -16 -21 -58 -69 -94 -105 -36 -36 -88 -90 -115 -120 -28 -30 -92 -94 -142
-142 l-92 -88 197 0 197 0 50 56 c28 31 56 63 64 71 64 67 155 218 208 349 34
81 38 176 10 229 -18 35 -121 147 -152 167 l-30 18 -1 122 c-2 192 -52 338
-139 403 -34 26 -137 55 -167 47 -11 -3 -29 5 -45 19 l-25 24 7 -24 c5 -17 4
-22 -6 -19 -7 2 -17 15 -21 29 -6 19 -7 17 -3 -8z m239 -78 c25 -19 9 -19 -24
0 -14 8 -19 14 -10 14 8 0 24 -6 34 -14z m4 -72 c31 -17 44 -33 49 -53 3 -17
10 -27 16 -23 6 4 7 1 3 -6 -5 -7 0 -18 10 -26 11 -8 15 -15 10 -15 -4 0 -2
-10 6 -22 18 -28 35 -159 19 -143 -6 6 -13 24 -15 40 -2 17 -10 44 -17 60 -7
17 -13 35 -13 40 -1 12 -5 17 -53 75 -21 25 -45 44 -53 43 -8 -1 -28 9 -45 23
-16 15 -24 23 -16 18 11 -5 13 -3 8 9 -5 14 -2 16 21 11 15 -4 46 -17 70 -31z
m-48 -58 c23 -24 16 -37 -7 -14 -9 9 -11 7 -9 -5 1 -9 12 -24 25 -32 12 -9 36
-34 52 -57 16 -22 29 -36 29 -31 0 11 -30 56 -42 65 -5 3 -10 16 -13 29 -2 12
-2 20 1 17 3 -3 6 -9 6 -14 0 -4 9 -14 19 -21 24 -17 56 -89 57 -130 0 -18 3
-45 6 -60 3 -15 2 -41 -2 -59 l-7 -32 -65 23 c-122 43 -140 53 -141 78 l-2 23
-4 -22 c-5 -24 -18 -30 -28 -13 -4 6 -11 8 -16 4 -6 -3 -7 5 -3 21 4 15 7 65
8 111 1 46 4 84 8 84 18 0 38 -51 40 -103 1 -31 6 -51 10 -44 4 6 5 21 3 32
-3 11 -7 46 -10 79 l-5 58 31 -6 c29 -6 31 -4 25 19 -8 32 4 32 34 0z m45 -5
c10 -11 16 -20 13 -20 -3 0 -13 9 -23 20 -10 11 -16 20 -13 20 3 0 13 -9 23
-20z m-217 -110 c5 -14 -17 -32 -30 -24 -4 3 -8 14 -8 24 0 21 31 21 38 0z
m334 -242 c-8 -8 -9 -4 -5 13 4 13 8 18 11 10 2 -7 -1 -18 -6 -23z"/>
<path d="M4280 1326 c0 -2 8 -10 18 -17 15 -13 16 -12 3 4 -13 16 -21 21 -21
13z"/>
<path d="M3511 1480 c14 -31 19 -36 19 -24 0 6 -7 19 -16 30 -14 18 -14 18 -3
-6z"/>
<path d="M3490 1470 c6 -11 13 -20 16 -20 2 0 0 9 -6 20 -6 11 -13 20 -16 20
-2 0 0 -9 6 -20z"/>
<path d="M4012 1479 c2 -6 8 -10 13 -10 5 0 11 4 13 10 2 6 -4 11 -13 11 -9 0
-15 -5 -13 -11z"/>
<path d="M1490 1070 c0 -5 -8 -10 -17 -11 -11 0 -13 -3 -6 -6 7 -2 23 3 35 11
18 13 19 16 5 16 -9 0 -17 -4 -17 -10z"/>
<path d="M2310 981 c0 -6 4 -13 10 -16 6 -3 7 1 4 9 -7 18 -14 21 -14 7z"/>
<path d="M2656 956 c10 -8 21 -12 24 -10 5 6 -21 24 -34 24 -6 0 -1 -6 10 -14z"/>
<path d="M2384 952 c-13 -9 -13 -53 0 -49 11 4 28 57 18 57 -4 0 -12 -4 -18
-8z"/>
<path d="M2300 925 c0 -8 4 -15 9 -15 5 0 11 7 15 15 3 9 0 15 -9 15 -8 0 -15
-7 -15 -15z"/>
<path d="M3150 926 c0 -2 8 -10 18 -17 15 -13 16 -12 3 4 -13 16 -21 21 -21
13z"/>
<path d="M2370 820 c0 -5 4 -10 9 -10 5 0 18 -3 28 -7 17 -6 17 -6 1 10 -18
19 -38 22 -38 7z"/>
<path d="M2415 690 c3 -5 8 -10 11 -10 2 0 4 5 4 10 0 6 -5 10 -11 10 -5 0 -7
-4 -4 -10z"/>
<path d="M2430 600 c0 -5 5 -10 11 -10 5 0 7 5 4 10 -3 6 -8 10 -11 10 -2 0
-4 -4 -4 -10z"/>
<path d="M166 455 c-48 -17 -69 -35 -41 -35 27 0 115 32 115 42 0 12 -30 9
-74 -7z"/>
<path d="M180 415 c-14 -8 -33 -14 -42 -15 -10 0 -20 -11 -24 -25 -7 -27 -16
-30 -44 -15 -14 7 -19 5 -23 -10 -3 -12 -14 -20 -26 -20 -12 0 -21 -6 -21 -15
0 -9 6 -15 12 -14 26 3 39 -1 33 -11 -3 -5 -15 -10 -26 -10 -15 0 -19 -7 -19
-37 0 -40 7 -41 13 -2 3 18 9 23 26 21 13 -2 21 2 21 11 0 8 17 24 38 34 20
11 41 29 47 41 5 12 18 22 28 22 15 0 67 44 67 56 0 9 -37 2 -60 -11z"/>
<path d="M1106 408 c-14 -41 -15 -48 -5 -54 20 -12 32 12 21 43 -8 23 -11 25
-16 11z"/>
<path d="M2526 405 c-3 -8 -1 -15 4 -15 6 0 10 7 10 15 0 8 -2 15 -4 15 -2 0
-6 -7 -10 -15z"/>
<path d="M879 405 c-1 -5 -1 -13 0 -17 0 -5 -3 -8 -9 -8 -5 0 -10 -4 -10 -10
0 -5 8 -10 18 -10 10 0 23 -5 30 -12 9 -9 12 -9 12 -1 0 7 -5 15 -11 18 -6 4
-14 17 -19 29 -5 11 -10 17 -11 11z"/>
<path d="M980 348 c-11 -18 -20 -40 -21 -48 0 -8 -4 -39 -8 -67 -8 -60 6 -77
26 -31 7 15 19 28 28 28 8 0 15 5 15 10 0 6 -12 9 -26 8 -15 -2 -29 3 -31 10
-3 6 2 12 11 12 10 0 16 9 16 25 0 26 15 34 23 13 2 -7 8 -10 12 -6 5 5 0 16
-9 27 -11 12 -14 21 -7 26 14 8 14 25 1 25 -6 0 -19 -15 -30 -32z"/>
<path d="M609 336 c9 -11 8 -17 -4 -29 -17 -17 -20 -47 -5 -47 6 0 10 8 10 18
0 10 9 28 19 39 22 23 18 33 -12 33 -15 0 -17 -3 -8 -14z"/>
<path d="M727 344 c-8 -8 1 -24 14 -24 5 0 9 7 9 15 0 15 -12 20 -23 9z"/>
<path d="M530 332 c0 -8 37 -42 45 -42 13 0 3 39 -11 44 -21 8 -34 8 -34 -2z"/>
<path d="M1103 323 c-18 -7 -16 -23 2 -23 8 0 15 7 15 15 0 8 -1 15 -2 14 -2
0 -9 -3 -15 -6z"/>
<path d="M368 256 c-4 -17 -1 -23 9 -19 14 6 18 43 4 43 -5 0 -11 -11 -13 -24z"/>
<path d="M430 270 c0 -5 5 -10 11 -10 5 0 7 5 4 10 -3 6 -8 10 -11 10 -2 0 -4
-4 -4 -10z"/>
<path d="M507 273 c-8 -7 11 -33 23 -33 5 0 6 9 3 20 -5 20 -15 25 -26 13z"/>
<path d="M902 238 c-1 -7 -5 -29 -8 -48 -6 -32 -5 -34 10 -21 16 14 23 81 8
81 -5 0 -9 -6 -10 -12z"/>
<path d="M160 215 c0 -8 2 -15 4 -15 2 0 6 7 10 15 3 8 1 15 -4 15 -6 0 -10
-7 -10 -15z"/>
<path d="M300 220 c0 -5 5 -10 10 -10 6 0 10 5 10 10 0 6 -4 10 -10 10 -5 0
-10 -4 -10 -10z"/>
<path d="M3280 174 c0 -8 5 -12 10 -9 6 3 10 10 10 16 0 5 -4 9 -10 9 -5 0
-10 -7 -10 -16z"/>
<path d="M210 170 c0 -6 7 -10 15 -10 8 0 15 2 15 4 0 2 -7 6 -15 10 -8 3 -15
1 -15 -4z"/>
<path d="M3278 153 c-10 -2 -18 -11 -18 -20 0 -8 -9 -17 -20 -20 -21 -6 -27
-37 -10 -48 15 -9 1 -27 -16 -21 -8 3 -14 1 -14 -3 0 -5 -3 -16 -6 -25 -4 -11
-1 -16 10 -16 9 0 15 5 14 11 -2 6 3 14 10 16 6 3 12 -2 12 -11 0 -9 7 -16 15
-16 11 0 13 8 9 30 -4 19 -2 30 5 30 6 0 11 6 11 14 0 8 4 16 8 18 11 4 24 68
14 67 -4 -1 -15 -3 -24 -6z"/>
<path d="M952 134 c-7 -8 -10 -19 -6 -26 5 -7 10 -3 16 12 10 28 7 33 -10 14z"/>
<path d="M2408 143 c7 -3 16 -2 19 1 4 3 -2 6 -13 5 -11 0 -14 -3 -6 -6z"/>
<path d="M220 131 c0 -5 7 -11 15 -15 9 -3 15 0 15 9 0 8 -7 15 -15 15 -8 0
-15 -4 -15 -9z"/>
<path d="M835 120 c-3 -6 0 -23 7 -38 9 -17 12 -38 7 -55 -7 -26 -6 -27 37
-27 50 0 59 18 24 47 -11 10 -20 23 -20 30 0 7 -9 13 -20 13 -12 0 -17 5 -14
14 6 17 -12 31 -21 16z"/>
<path d="M880 120 c0 -5 5 -10 11 -10 5 0 7 5 4 10 -3 6 -8 10 -11 10 -2 0 -4
-4 -4 -10z"/>
<path d="M1670 16 c0 -2 7 -6 15 -10 8 -3 15 -1 15 4 0 6 -7 10 -15 10 -8 0
-15 -2 -15 -4z"/>
</g>
</svg>
